<svg xml:space="preserve" style="max-height: 500px" viewBox="239.188 236.738 520 530" y="0px" x="0px" xmlns:xlink="http://www.w3.org/1999/xlink" xmlns="http://www.w3.org/2000/svg" id="Layer_1" version="1.1" width="520" height="530">
<style type="text/css">
	.st0{fill:#FFFFFF;}
	.st1{fill:url(#SVGID_1_);}
	.st2{fill:url(#SVGID_00000061447569705514420110000007580111804428891071_);}
	.st3{fill:url(#SVGID_00000030446974662350433560000010362094101617820051_);}
	.st4{fill:url(#SVGID_00000028287766925274401440000013062658421061200545_);}
	.st5{fill:#B2DE6D;}
	.st6{fill:url(#SVGID_00000087382014549082160210000007895427108344387481_);}
	.st7{fill:url(#SVGID_00000168078795208314169920000011800143810024889475_);}
	.st8{fill:url(#SVGID_00000131366775988566610430000010650631989748356259_);}
	.st9{fill:url(#SVGID_00000027596381577711182120000011838593011920972694_);}
	.st10{fill:url(#SVGID_00000073722843522253137010000014134929403997000576_);}
	.st11{fill:url(#SVGID_00000087387641851267939670000012801802333592019365_);}
	.st12{fill:url(#SVGID_00000175313442854531181790000012060693995770912680_);}
	.st13{fill:url(#SVGID_00000140713016484063714470000016093101176827325059_);}
	.st14{fill:url(#SVGID_00000160174840165196601160000016866385633680875684_);}
	.st15{fill:url(#SVGID_00000082334102048245116470000008164704175117986468_);}
	.st16{fill:url(#SVGID_00000119077354479850300690000004038082453327924398_);}
	.st17{fill:url(#SVGID_00000075139949506513675230000007987686347331844028_);}
</style>
<rect height="1000" width="1000" class="st0"/>
<g>
	<linearGradient y2="208.1317" x2="556.0613" y1="595.4567" x1="556.6349" gradientUnits="userSpaceOnUse" id="SVGID_1_">
		<stop style="stop-color:#B2DE6D" offset="0"/>
		<stop style="stop-color:#ABDA71" offset="6.354836e-02"/>
		<stop style="stop-color:#7ABF8F" offset="0.5584"/>
		<stop style="stop-color:#67B59B" offset="0.8033"/>
	</linearGradient>
	<path d="M750,500c0-137.9-112.2-250-250-250c-50.7,0-97.9,15.2-137.3,41.2l4.3,5.4c38.2-25.1,83.9-39.7,133-39.7&#10;&#9;&#9;c134,0,243.1,109.1,243.1,243.1c0,22.9-3.2,45-9.1,66.1c-0.7,2.4-1.4,4.7-2.1,7.1c2.1,1.7,3.8,3.8,5.3,6.1c2.6,4.1,4.2,9,4.2,14.3&#10;&#9;&#9;c0,13.1-9.5,24.1-22,26.3c-1.6,0.3-3.2,0.5-4.8,0.5c-1.1,0-2.2-0.1-3.2-0.2c-6.4-0.8-12.1-3.8-16.3-8.3c-1.7-1.9-3.2-4-4.4-6.3&#10;&#9;&#9;c-1.8-3.6-2.9-7.7-2.9-12c0-12.2,8.2-22.5,19.4-25.7c2.4-0.7,4.9-1.1,7.4-1.1c0.1,0,0.1,0,0.2,0c0.7-2.3,1.4-4.5,2-6.8&#10;&#9;&#9;c5.3-19.1,8.1-39.2,8.1-59.9c0-123.9-100.8-224.8-224.8-224.8c-44.8,0-86.5,13.2-121.6,35.8l4.3,5.4&#10;&#9;&#9;c33.9-21.7,74.1-34.4,117.3-34.4c120.1,0,217.9,97.7,217.9,217.9c0,20.9-3,41.1-8.5,60.3c-16.2,2.5-28.6,16.4-28.6,33.3&#10;&#9;&#9;c0,7,2.1,13.5,5.8,18.9c1.4,2,3,3.8,4.7,5.5c4.4,4.2,10,7.3,16.2,8.6c2.3,0.5,4.6,0.7,7,0.7c0.2,0,0.4,0,0.6,0&#10;&#9;&#9;c18.3-0.3,33.1-15.3,33.1-33.7c0-8.6-3.3-16.4-8.5-22.4C746.4,548.6,750,524.7,750,500z" class="st1"/>
	
		<linearGradient y2="345.2815" x2="485.7868" y1="524.2112" x1="322.5224" gradientUnits="userSpaceOnUse" id="SVGID_00000142177382095437446350000005487181495947739290_">
		<stop style="stop-color:#B2DE6D" offset="0"/>
		<stop style="stop-color:#67B59B" offset="1"/>
	</linearGradient>
	<path d="M500,324.8c17.3,0,34,2.5,49.7,7.2&#10;&#9;&#9;l0.9-6.9c-16.1-4.7-33.1-7.2-50.7-7.2c-100.4,0-182.1,81.7-182.1,182.1c0,9.3,0.7,18.4,2,27.3c-7,6.2-11.4,15.2-11.4,25.2&#10;&#9;&#9;c0,17.7,13.7,32.2,31.1,33.6c0.9,0.1,1.7,0.1,2.6,0.1c1.7,0,3.4-0.2,5.1-0.4c6-0.9,11.5-3.4,16.1-7.1c1.9-1.5,3.5-3.2,5.1-5.1&#10;&#9;&#9;c4.7-5.8,7.5-13.1,7.5-21.1c0-15.7-10.8-28.9-25.4-32.6c-0.9-6.5-1.4-13.2-1.4-19.9c0-83.2,67.7-150.9,150.9-150.9&#10;&#9;&#9;c16.2,0,31.8,2.6,46.4,7.3l1-7c-15-4.7-30.9-7.3-47.4-7.3c-87,0-157.8,70.8-157.8,157.8c0,6.4,0.4,12.7,1.2,18.9&#10;&#9;&#9;c0.3,2.3,0.6,4.7,1,7c2.6,0.2,5,0.8,7.3,1.7c10.1,3.9,17.3,13.6,17.3,25c0,5.3-1.5,10.2-4.2,14.3c-1.3,2.1-3,4-4.8,5.7&#10;&#9;&#9;c-4.4,3.9-10,6.4-16.2,6.7c-0.5,0-1.1,0.1-1.6,0.1c-2.3,0-4.4-0.3-6.5-0.8c-11.6-2.9-20.3-13.4-20.3-26c0-6.4,2.3-12.3,6-16.9&#10;&#9;&#9;c1.7-2.1,3.8-4,6-5.5c-0.4-2.4-0.8-4.9-1.1-7.4c-1-7.5-1.5-15.1-1.5-22.8C324.8,403.4,403.4,324.8,500,324.8z" style="fill:url(#SVGID_00000142177382095437446350000005487181495947739290_);"/>
	
		<linearGradient y2="349.9792" x2="272.1476" y1="648.571" x1="443.6798" gradientUnits="userSpaceOnUse" id="SVGID_00000049907087560418547870000016556272457525860506_">
		<stop style="stop-color:#67B59B" offset="4.475343e-07"/>
		<stop style="stop-color:#72BB94" offset="0.2255"/>
		<stop style="stop-color:#90CB82" offset="0.623"/>
		<stop style="stop-color:#B2DE6D" offset="1"/>
	</linearGradient>
	<path d="M333.1,685.9l0.9,0.8l4.9-4.9l13-13&#10;&#9;&#9;l4.9-4.9l24.3-24.3l1.1-1.1c31.8,27.1,73,43.4,117.9,43.4c34.5,0,66.8-9.7,94.4-26.5l-5-5c-26.2,15.6-56.7,24.6-89.3,24.6&#10;&#9;&#9;c-2.4,0-4.9-0.1-7.3-0.2c-0.4,0-0.9,0-1.3-0.1c-2.3-0.1-4.6-0.3-6.9-0.5c-0.4,0-0.9-0.1-1.3-0.1c-2.4-0.2-4.7-0.5-7.1-0.8&#10;&#9;&#9;c0,0-0.1,0-0.1,0c-2.4-0.3-4.7-0.7-7-1.1c-0.4-0.1-0.7-0.1-1.1-0.2c-2.3-0.4-4.5-0.9-6.7-1.4c-0.4-0.1-0.7-0.2-1.1-0.3&#10;&#9;&#9;c-4.7-1.1-9.2-2.4-13.8-3.8c-0.3-0.1-0.5-0.2-0.8-0.3c-2.2-0.7-4.4-1.5-6.6-2.3c-0.3-0.1-0.6-0.2-0.9-0.3&#10;&#9;&#9;c-4.5-1.7-8.9-3.6-13.3-5.7c-0.2-0.1-0.3-0.1-0.5-0.2c-2.1-1-4.3-2.1-6.4-3.2c-0.2-0.1-0.4-0.2-0.6-0.3c-4.3-2.3-8.5-4.8-12.6-7.5&#10;&#9;&#9;c0,0-0.1-0.1-0.1-0.1c-2-1.3-4-2.7-6-4.1c-0.1-0.1-0.3-0.2-0.4-0.3c-3.2-2.3-6.4-4.8-9.5-7.3c-0.7-0.6-1.5-1.2-2.2-1.8l0,0&#10;&#9;&#9;c-1.4-1.2-2.7-2.4-4.1-3.6c-0.2-0.1-0.3-0.3-0.5-0.4l0,0l-0.3-0.2l-4.9,4.9l-25.3,25.3l-4.9,4.9l-12.9,12.9&#10;&#9;&#9;c-47.3-44.4-76.9-107.4-76.9-177.2c0-50.5,15.5-97.4,41.9-136.4c1.4-2,2.8-4,4.2-6c-1.4-2.3-2.5-4.8-3.1-7.4&#10;&#9;&#9;c-0.5-2.1-0.9-4.3-0.9-6.6c0-14.8,12-26.8,26.8-26.8c1.3,0,2.6,0.1,3.8,0.3c2.7,0.4,5.3,1.2,7.7,2.3c5.7,2.7,10.2,7.3,12.8,13.1&#10;&#9;&#9;c1.1,2.3,1.8,4.8,2.1,7.4c0.2,1.2,0.3,2.5,0.3,3.7c0,14.8-12,26.8-26.8,26.8c-0.3,0-0.6,0-0.9,0c-2.6-0.1-5.2-0.5-7.6-1.3&#10;&#9;&#9;c-1.4,1.9-2.8,3.9-4.1,5.9c-24.1,35.8-38.1,78.8-38.1,125.1c0,1.9,0,3.8,0.1,5.7c0,0.6,0,1.2,0.1,1.9c0,1.3,0.1,2.5,0.2,3.8&#10;&#9;&#9;c0,0.7,0.1,1.5,0.1,2.2c0.1,1.2,0.1,2.3,0.2,3.5c0.1,0.8,0.1,1.5,0.2,2.3c0.1,1.1,0.2,2.2,0.3,3.3c0.1,0.8,0.2,1.5,0.2,2.3&#10;&#9;&#9;c0.1,1.1,0.3,2.3,0.4,3.4c0.1,0.7,0.2,1.5,0.3,2.2c0.2,1.2,0.4,2.5,0.5,3.7c0.1,0.6,0.2,1.2,0.3,1.8c0.3,1.8,0.6,3.5,0.9,5.3&#10;&#9;&#9;c0.1,0.6,0.3,1.3,0.4,1.9c0.2,1.1,0.4,2.3,0.7,3.4c0.2,0.8,0.4,1.6,0.5,2.4c0.2,1,0.4,1.9,0.7,2.9c0.2,0.9,0.4,1.7,0.6,2.5&#10;&#9;&#9;c0.2,0.9,0.5,1.8,0.7,2.7c0.2,0.9,0.5,1.8,0.7,2.6c0.2,0.9,0.5,1.7,0.7,2.6c0.3,0.9,0.5,1.8,0.8,2.7c0.2,0.8,0.5,1.6,0.8,2.4&#10;&#9;&#9;c0.3,0.9,0.6,1.8,0.9,2.8c0.2,0.7,0.5,1.4,0.7,2.1c0.7,2.1,1.4,4.2,2.2,6.2c0.2,0.5,0.3,0.9,0.5,1.4c0.4,1,0.8,2.1,1.2,3.1&#10;&#9;&#9;c0.2,0.6,0.5,1.2,0.7,1.8c0.4,1,0.9,2,1.3,3.1c0.3,0.6,0.5,1.2,0.8,1.8c0.5,1,0.9,2.1,1.4,3.1c0.3,0.6,0.5,1.1,0.8,1.7&#10;&#9;&#9;c0.5,1.1,1,2.1,1.5,3.1c0.2,0.5,0.5,0.9,0.7,1.4c0.5,1.1,1.1,2.2,1.7,3.3c0.1,0.3,0.3,0.5,0.4,0.8c2.8,5.4,5.9,10.7,9.1,15.9&#10;&#9;&#9;c0.2,0.3,0.3,0.5,0.5,0.8c0.7,1.1,1.5,2.3,2.2,3.4c0.2,0.3,0.4,0.6,0.6,0.9c0.7,1.1,1.5,2.2,2.3,3.4c0.2,0.3,0.4,0.5,0.5,0.8&#10;&#9;&#9;c0.8,1.2,1.6,2.3,2.5,3.5c0.1,0.1,0.2,0.2,0.2,0.3c3.8,5.2,7.8,10.2,12,15.1v0l0,0l0.4,0.4c0,0,0,0,0,0c0,0,0,0,0,0l1.4,1.6&#10;&#9;&#9;l2.5,2.8l0,0l0.3,0.3l0,0l2.5-2.5l2.4-2.4l25.3-25.3l4.9-4.9l12.4-12.4c28.9,32.5,71,53,117.8,53c27.8,0,53.9-7.2,76.5-19.9&#10;&#9;&#9;l-5.1-5.1c-21.3,11.5-45.6,18-71.5,18c-1.6,0-3.2,0-4.8-0.1c-0.5,0-1,0-1.5-0.1c-1.1,0-2.2-0.1-3.3-0.2c-0.6,0-1.1-0.1-1.7-0.1&#10;&#9;&#9;c-1.1-0.1-2.2-0.2-3.2-0.3c-0.5-0.1-1-0.1-1.6-0.2c-1.4-0.2-2.9-0.3-4.3-0.5c-0.2,0-0.3,0-0.5-0.1c-1.5-0.2-3-0.4-4.5-0.7&#10;&#9;&#9;c-0.5-0.1-1.1-0.2-1.6-0.3c-1-0.2-2-0.4-3-0.6c-0.6-0.1-1.2-0.3-1.8-0.4c-0.9-0.2-1.9-0.4-2.8-0.6c-0.6-0.1-1.2-0.3-1.8-0.4&#10;&#9;&#9;c-1.1-0.3-2.2-0.6-3.2-0.8c-0.7-0.2-1.3-0.4-2-0.6c-1.1-0.3-2.3-0.7-3.4-1c-0.7-0.2-1.3-0.4-2-0.6c-0.8-0.3-1.5-0.5-2.3-0.8&#10;&#9;&#9;c-0.7-0.2-1.4-0.5-2.1-0.8c-0.7-0.3-1.4-0.5-2.1-0.8c-0.7-0.3-1.5-0.6-2.2-0.8c-0.7-0.3-1.3-0.5-2-0.8c-1.4-0.6-2.8-1.2-4.2-1.8&#10;&#9;&#9;c-0.5-0.2-1.1-0.5-1.6-0.7c-0.8-0.4-1.6-0.8-2.4-1.2c-0.5-0.2-1-0.5-1.5-0.7c-0.8-0.4-1.6-0.8-2.5-1.3c-0.5-0.2-0.9-0.5-1.3-0.7&#10;&#9;&#9;c-0.9-0.5-1.7-0.9-2.6-1.4c-0.3-0.1-0.5-0.3-0.8-0.5c-3.1-1.7-6-3.6-8.9-5.5c-0.2-0.2-0.5-0.3-0.7-0.5c-0.9-0.6-1.8-1.2-2.7-1.9&#10;&#9;&#9;c-0.2-0.2-0.5-0.3-0.7-0.5c-4.1-2.9-8.1-6.1-11.8-9.4c-0.1-0.1-0.1-0.1-0.2-0.2c-0.9-0.8-1.8-1.6-2.7-2.5c-0.1-0.1-0.2-0.2-0.3-0.2&#10;&#9;&#9;c-3.8-3.5-7.4-7.3-10.8-11.2c-0.5-0.5-0.9-1.1-1.4-1.7c-0.7-0.8-1.3-1.6-2-2.4l0,0l-0.5-0.6l-2.8,2.8l-2.2,2.2l-12.4,12.4l-4.9,4.9&#10;&#9;&#9;L335,642.1c-32.9-38.2-52.9-87.9-52.9-142.1c0-45.7,14.1-88.1,38.3-123.2c1.8,0.3,3.6,0.5,5.5,0.5c18.6,0,33.7-15.1,33.7-33.7&#10;&#9;&#9;c0-0.7,0-1.4-0.1-2.1c-0.2-2.4-0.6-4.7-1.2-7c-0.7-2.4-1.6-4.6-2.7-6.8c-2.9-5.5-7.3-10.1-12.7-13.2c-2.2-1.3-4.5-2.4-7-3.1&#10;&#9;&#9;c-0.1,0-0.3-0.1-0.4-0.1c-3.1-0.9-6.3-1.4-9.7-1.4c-18.6,0-33.7,15.1-33.7,33.7c0,4.8,1,9.3,2.8,13.5c-28.3,40.5-45,89.8-45,142.9&#10;&#9;&#9;C250,573.8,282.1,640.1,333.1,685.9 M386.6,633.5l0.4,0.3L386.6,633.5C386.6,633.5,386.6,633.5,386.6,633.5z" style="fill:url(#SVGID_00000049907087560418547870000016556272457525860506_);"/>
	
		<linearGradient y2="259.7375" x2="632.0874" y1="635.9041" x1="534.184" gradientUnits="userSpaceOnUse" id="SVGID_00000055682887976103701010000013582987900249802672_">
		<stop style="stop-color:#67B59B" offset="0"/>
		<stop style="stop-color:#B2DE6D" offset="0.7873"/>
	</linearGradient>
	<path d="M682,660.9l-13-13l-4.9-4.9l-25.3-25.3&#10;&#9;&#9;c27-31.8,43.3-72.9,43.3-117.7c0-41.4-13.9-79.6-37.2-110.2c1.4-3.7,2.2-7.7,2.2-11.8c0-18.6-15.1-33.7-33.7-33.7&#10;&#9;&#9;c-4.6,0-9,1-13.1,2.7c-0.3,0.1-0.7,0.3-1,0.4c-2.4,1.1-4.6,2.4-6.6,4c-4.6,3.6-8.3,8.4-10.6,14c-0.9,2.2-1.5,4.5-2,6.9&#10;&#9;&#9;c-0.3,1.8-0.5,3.7-0.5,5.7c0,5.4,1.3,10.5,3.6,15c5.5,11.1,16.9,18.7,30.1,18.7c2.8,0,5.5-0.4,8.1-1c18.5,25,29.4,55.9,29.4,89.4&#10;&#9;&#9;c0,46.8-21.4,88.6-54.9,116.3l-1.2,1l4.9,4.9l12.4,12.4l4.9,4.9l12.4,12.4l12.9,12.9c-38.2,33-88,53-142.3,53&#10;&#9;&#9;c-44.8,0-86.4-13.6-121-36.8l-5,5c36,24.4,79.3,38.7,126,38.7c1.9,0,3.8,0,5.7-0.1c0.6,0,1.3,0,1.9-0.1c1.3,0,2.5-0.1,3.8-0.2&#10;&#9;&#9;c0.7,0,1.5-0.1,2.2-0.1c1.2-0.1,2.3-0.1,3.5-0.2c0.8-0.1,1.5-0.1,2.3-0.2c1.1-0.1,2.2-0.2,3.3-0.3c0.8-0.1,1.5-0.2,2.3-0.2&#10;&#9;&#9;c1.1-0.1,2.3-0.3,3.4-0.4c0.7-0.1,1.5-0.2,2.2-0.3c1.2-0.2,2.5-0.4,3.7-0.5c0.6-0.1,1.2-0.2,1.8-0.3c1.8-0.3,3.5-0.6,5.3-0.9&#10;&#9;&#9;c0.6-0.1,1.3-0.3,1.9-0.4c1.2-0.2,2.3-0.5,3.5-0.7c0.8-0.2,1.6-0.4,2.4-0.5c1-0.2,1.9-0.4,2.9-0.7c0.8-0.2,1.7-0.4,2.5-0.6&#10;&#9;&#9;c0.9-0.2,1.8-0.5,2.7-0.7c0.9-0.2,1.7-0.5,2.6-0.7c0.9-0.2,1.7-0.5,2.6-0.7c0.9-0.3,1.8-0.5,2.7-0.8c0.8-0.2,1.6-0.5,2.4-0.8&#10;&#9;&#9;c0.9-0.3,1.8-0.6,2.7-0.9c0.7-0.2,1.4-0.5,2.1-0.7c2.1-0.7,4.2-1.5,6.2-2.2c0.4-0.2,0.9-0.3,1.3-0.5c1-0.4,2.1-0.8,3.1-1.2&#10;&#9;&#9;c0.6-0.2,1.2-0.5,1.8-0.7c1-0.4,2-0.9,3.1-1.3c0.6-0.3,1.2-0.5,1.8-0.8c1-0.4,2.1-0.9,3.1-1.4c0.6-0.3,1.1-0.5,1.7-0.8&#10;&#9;&#9;c1-0.5,2.1-1,3.1-1.5c0.5-0.2,1-0.5,1.4-0.7c1.1-0.5,2.2-1.1,3.3-1.7c0.3-0.1,0.5-0.3,0.8-0.4c5.4-2.8,10.7-5.8,15.9-9.1&#10;&#9;&#9;c0.3-0.2,0.5-0.3,0.8-0.5c1.1-0.7,2.3-1.4,3.4-2.2c0.3-0.2,0.6-0.4,0.9-0.6c1.1-0.7,2.2-1.5,3.3-2.3c0.3-0.2,0.5-0.4,0.8-0.6&#10;&#9;&#9;c1.1-0.8,2.3-1.6,3.4-2.4c0.1-0.1,0.3-0.2,0.4-0.3c5.2-3.8,10.2-7.8,15-12c0,0,0,0,0,0l0,0l0.4-0.4l0,0l4.4-4l0,0l0.3-0.2l0,0&#10;&#9;&#9;l-2.5-2.5l-2.4-2.4l-25.3-25.3l-4.9-4.9l-12.4-12.4c32.4-28.9,52.8-71,52.8-117.7c0-34.2-11-65.9-29.6-91.8&#10;&#9;&#9;c-1.4-1.9-2.8-3.8-4.2-5.6c-2.3,1-4.7,1.6-7.2,2c-1.1,0.1-2.2,0.2-3.3,0.2c-8.7,0-16.4-4.2-21.3-10.6c-3.4-4.5-5.5-10.1-5.5-16.2&#10;&#9;&#9;c0-0.5,0-0.9,0.1-1.3c0.1-2.6,0.6-5.1,1.4-7.4c2-5.7,5.8-10.5,10.8-13.7l0.3-0.2c2.2-1.4,4.5-2.4,7.1-3.1c2.3-0.6,4.7-1,7.1-1&#10;&#9;&#9;c14.8,0,26.8,12,26.8,26.8c0,1.8-0.2,3.6-0.5,5.3c-0.5,2.7-1.5,5.2-2.8,7.6c1.5,1.9,3,3.9,4.5,5.9c21.3,29,33.8,64.7,33.8,103.4&#10;&#9;&#9;c0,2.4-0.1,4.8-0.2,7.3c0,0.4,0,0.9-0.1,1.3c-0.1,2.3-0.3,4.6-0.5,6.9c0,0.4-0.1,0.9-0.1,1.3c-0.2,2.4-0.5,4.7-0.8,7.1&#10;&#9;&#9;c0,0,0,0.1,0,0.1c-0.3,2.3-0.7,4.7-1.1,7c-0.1,0.4-0.1,0.7-0.2,1.1c-0.4,2.3-0.9,4.5-1.4,6.7c-0.1,0.4-0.2,0.7-0.3,1.1&#10;&#9;&#9;c-1.1,4.7-2.4,9.2-3.8,13.7c-0.1,0.3-0.2,0.5-0.3,0.8c-0.7,2.2-1.5,4.4-2.3,6.6c-0.1,0.3-0.2,0.6-0.3,0.8&#10;&#9;&#9;c-1.7,4.5-3.6,8.9-5.7,13.3c-0.1,0.1-0.1,0.3-0.2,0.4c-1,2.1-2.1,4.3-3.2,6.4c-0.1,0.2-0.2,0.4-0.3,0.6c-2.3,4.3-4.8,8.5-7.4,12.6&#10;&#9;&#9;c0,0-0.1,0.1-0.1,0.1c-1.3,2-2.7,4-4.1,6c-0.1,0.1-0.2,0.2-0.3,0.4c-2.8,3.9-5.8,7.7-8.9,11.4c-0.1,0.1-0.1,0.2-0.2,0.3l0,0&#10;&#9;&#9;c-0.9,1.1-1.9,2.2-2.8,3.2c-0.4,0.4-0.8,0.9-1.2,1.3l-0.2,0.2l2.4,2.4l2.5,2.5l25.3,25.3l4.9,4.9l12.9,12.9&#10;&#9;&#9;C633,713.4,569.9,743.1,500,743.1c-51.7,0-99.7-16.3-139.1-43.9l-5,5C396.6,733,446.4,750,500,750c71.8,0,136.6-30.5,182.3-79.1&#10;&#9;&#9;l0,0l4.5-5c0,0,0.1-0.1,0.1-0.1l0,0v0l-2.2-2.2L682,660.9z" style="fill:url(#SVGID_00000055682887976103701010000013582987900249802672_);"/>
</g>
</svg>